<?xml version="1.0" encoding="UTF-8" standalone="no"?>
<!-- Created with Inkscape (http://www.inkscape.org/) -->

<svg
   width="400"
   height="400"
   viewBox="0 0 105.83333 105.83333"
   version="1.1"
   id="svg1"
   inkscape:version="1.3.2 (091e20ef0f, 2023-11-25, custom)"
   sodipodi:docname="logo.svg"
   inkscape:export-filename="../../favicon.ico"
   inkscape:export-xdpi="23.040001"
   inkscape:export-ydpi="23.040001"
   xmlns:inkscape="http://www.inkscape.org/namespaces/inkscape"
   xmlns:sodipodi="http://sodipodi.sourceforge.net/DTD/sodipodi-0.dtd"
   xmlns:xlink="http://www.w3.org/1999/xlink"
   xmlns="http://www.w3.org/2000/svg"
   xmlns:svg="http://www.w3.org/2000/svg">
  <sodipodi:namedview
     id="namedview1"
     pagecolor="#ffffff"
     bordercolor="#000000"
     borderopacity="0.25"
     inkscape:showpageshadow="2"
     inkscape:pageopacity="0.0"
     inkscape:pagecheckerboard="false"
     inkscape:deskcolor="#d1d1d1"
     inkscape:document-units="px"
     inkscape:zoom="2.375"
     inkscape:cx="158.31579"
     inkscape:cy="205.05263"
     inkscape:window-width="2560"
     inkscape:window-height="1368"
     inkscape:window-x="0"
     inkscape:window-y="0"
     inkscape:window-maximized="1"
     inkscape:current-layer="g1" />
  <defs
     id="defs1">
    <linearGradient
       id="linearGradient11"
       inkscape:collect="always">
      <stop
         style="stop-color:#bbbbbb;stop-opacity:1;"
         offset="0"
         id="stop11" />
      <stop
         style="stop-color:#cccccc;stop-opacity:1;"
         offset="1"
         id="stop12" />
    </linearGradient>
    <linearGradient
       id="linearGradient9"
       inkscape:collect="always">
      <stop
         style="stop-color:#2c89a0;stop-opacity:1;"
         offset="0"
         id="stop9" />
      <stop
         style="stop-color:#216778;stop-opacity:1;"
         offset="1"
         id="stop10" />
    </linearGradient>
    <linearGradient
       inkscape:collect="always"
       xlink:href="#linearGradient9"
       id="linearGradient10"
       x1="13.289197"
       y1="37.249557"
       x2="72.566849"
       y2="67.479706"
       gradientUnits="userSpaceOnUse" />
    <linearGradient
       inkscape:collect="always"
       xlink:href="#linearGradient11"
       id="linearGradient12"
       x1="13.44439"
       y1="19.93339"
       x2="67.351509"
       y2="46.689919"
       gradientUnits="userSpaceOnUse" />
  </defs>
  <g
     inkscape:label="Warstwa 1"
     inkscape:groupmode="layer"
     id="layer1">
    <circle
       style="fill:#ffffff;fill-opacity:1;stroke:none;stroke-width:1.32292;stroke-linecap:round;stroke-linejoin:round;stroke-dasharray:none;stroke-dashoffset:0;stroke-opacity:1"
       id="path29"
       cx="52.916664"
       cy="52.916664"
       r="52.916664" />
    <g
       id="g29"
       transform="translate(0,13.340568)">
      <g
         id="g3"
         transform="translate(0,-0.11140351)" />
      <g
         id="g1">
        <g
           id="g4"
           transform="matrix(1.1666666,0,0,1.3516254,-8.8194441,-20.167561)">
          <path
             id="path2"
             style="fill:url(#linearGradient10);stroke:none;stroke-width:0.264583;stroke-opacity:1"
             d="m 13.486515,36.997742 a 39.6875,39.6875 0 0 0 19.586402,30.445687 39.6875,39.6875 0 0 0 39.6875,0 A 39.6875,39.6875 0 0 0 92.346818,36.997742 41.010418,14.552083 0 0 1 52.916667,47.625 41.010418,14.552083 0 0 1 13.486515,36.997742 Z"
             transform="translate(0,-0.1114036)" />
          <path
             id="path2-5"
             style="fill:#216778;fill-opacity:1;stroke:none;stroke-width:0.402913;stroke-opacity:1"
             d="m 35.921104,70.260633 v 4.212068 c 10.996916,5.462505 22.994361,5.462174 33.991125,-9.38e-4 v -4.21113 c -11.05759,4.940324 -22.933535,4.940324 -33.991125,0 z"
             sodipodi:nodetypes="ccccc"
             transform="translate(0,-0.1114036)" />
          <ellipse
             style="fill:url(#linearGradient12);stroke:none;stroke-width:0.264583;stroke-opacity:1"
             id="path1"
             cx="52.916668"
             cy="33.072918"
             rx="39.6875"
             ry="13.229167"
             transform="translate(0,-0.1114036)" />
          <path
             d="m 84.581,51.282 c 0.5225,-0.609 0.9935,-0.6746 1.1935,-0.1661 0.1999,0.5084 0.0894,1.4907 -0.2801,2.4889 -0.3694,0.9982 -0.9149,1.825 -1.4342,2.047 -0.5193,0.222 -0.8579,-0.1566 -0.8579,-0.9592 0,-0.5263 0.1465,-1.1802 0.4071,-1.8179 0.2606,-0.6377 0.629,-1.1933 0.9716,-1.5927 z M 68.8952,61.6094 c 0.7511,-0.2825 1.4307,-0.0478 1.7113,0.5689 0.2806,0.6167 0.133,1.5574 -0.3981,2.3247 -0.5311,0.7673 -1.3299,1.2375 -2.0238,1.1914 -0.694,-0.0461 -1.1663,-0.6574 -1.1663,-1.46 0,-0.5263 0.1995,-1.0932 0.5548,-1.5761 0.3552,-0.4829 0.8296,-0.8637 1.3221,-1.0489 z m -18.6343,2.7403 c 0.7999,0.0649 1.5252,0.5293 1.8322,1.2791 0.307,0.7498 0.1373,1.5987 -0.43,2.151 -0.5672,0.5522 -1.42,0.6933 -2.159,0.3262 -0.739,-0.3671 -1.2208,-1.1298 -1.2208,-1.9324 0,-0.5263 0.2083,-1.0141 0.5792,-1.3562 0.3709,-0.342 0.8739,-0.5103 1.3984,-0.4677 z M 32.0758,59.4778 c 0.7123,0.3695 1.3649,1.1644 1.6455,2.0307 0.2806,0.8664 0.1255,1.6509 -0.3929,1.9878 -0.5185,0.3369 -1.2685,0.0981 -1.9266,-0.5505 -0.6581,-0.6485 -1.07,-1.6255 -1.07,-2.4281 0,-0.5263 0.1683,-0.904 0.4986,-1.1048 0.3303,-0.2008 0.7783,-0.1775 1.2454,0.0649 z m 49.6921,-9.9753 c 0.6528,-0.4667 1.2317,-0.4166 1.4697,0.1309 0.2381,0.5475 0.1065,1.5083 -0.3333,2.4343 -0.4398,0.9261 -1.1509,1.57 -1.7541,1.694 -0.6032,0.124 -1.0331,-0.3732 -1.0331,-1.1758 0,-0.5263 0.1771,-1.1421 0.4923,-1.712 0.3152,-0.5698 0.7304,-1.0654 1.1585,-1.3714 z m -17.4088,7.1713 c 0.7869,-0.1579 1.4935,0.171 1.7915,0.8382 0.298,0.6672 0.1333,1.5618 -0.4173,2.2667 -0.5506,0.7048 -1.3917,1.0234 -2.1187,0.8621 -0.7269,-0.1613 -1.2065,-0.8212 -1.2065,-1.6238 0,-0.5263 0.2066,-1.0628 0.5744,-1.4916 0.3678,-0.4288 0.8607,-0.7481 1.3766,-0.8516 z m -18.872,0.6654 c 0.7978,0.0869 1.5171,0.6487 1.8224,1.4235 0.3053,0.7747 0.1365,1.6099 -0.4276,2.116 -0.5641,0.5061 -1.4139,0.5933 -2.1467,0.1734 -0.7328,-0.42 -1.2106,-1.2172 -1.2106,-2.0198 0,-0.5263 0.2066,-0.9992 0.5744,-1.3147 0.3678,-0.3155 0.8649,-0.4353 1.3881,-0.3784 z M 27.51,51.662 c 0.7033,0.3864 1.3418,1.2096 1.6188,2.0838 0.277,0.8743 0.1239,1.6544 -0.3879,1.9767 -0.5117,0.3224 -1.2466,0.0558 -1.8964,-0.6084 -0.6498,-0.6641 -1.0431,-1.6722 -1.0431,-2.4748 0,-0.5263 0.1771,-0.92 0.4923,-1.0944 0.3153,-0.1745 0.7551,-0.1363 1.2163,0.1171 z m 50.9007,-5.1132 c 0.7421,-0.3058 1.3967,-0.1303 1.6746,0.4805 0.2779,0.6108 0.1243,1.5366 -0.3892,2.3456 -0.5135,0.8091 -1.3019,1.3055 -1.9874,1.2808 -0.6856,-0.0247 -1.1426,-0.5901 -1.1426,-1.3927 0,-0.5263 0.1968,-1.1017 0.547,-1.5997 0.3501,-0.498 0.8111,-0.9141 1.2976,-1.1145 z m -18.3931,4.3208 c 0.7999,-0.0654 1.5179,0.3274 1.823,1.0337 0.3051,0.7063 0.1364,1.5793 -0.4273,2.2119 -0.5638,0.6326 -1.4136,0.8807 -2.1526,0.6339 -0.739,-0.2468 -1.2209,-0.9312 -1.2209,-1.7338 0,-0.5263 0.2084,-1.0479 0.5793,-1.4503 0.3709,-0.4025 0.8739,-0.6526 1.3985,-0.6954 z M 41.1064,50.2883 c 0.7936,0.1194 1.5086,0.7144 1.8137,1.4911 0.3051,0.7768 0.1349,1.6221 -0.4263,2.1052 -0.5611,0.4831 -1.4051,0.5259 -2.1383,0.1084 -0.7333,-0.4175 -1.2047,-1.252 -1.2047,-2.0546 0,-0.5263 0.2054,-0.9926 0.5712,-1.2963 0.3658,-0.3037 0.864,-0.4321 1.3844,-0.3538 z M 23.1559,44.4775 c 0.7073,0.3792 1.3449,1.2045 1.6156,2.0911 0.2707,0.8866 0.1211,1.6599 -0.3791,1.9594 -0.5001,0.2994 -1.2558,0.0721 -1.8883,-0.6218 -0.6326,-0.6938 -1.045,-1.6696 -1.045,-2.4722 0,-0.5263 0.1783,-0.922 0.4958,-1.1 0.3174,-0.1781 0.7372,-0.1051 1.201,0.1435 z"
             style="fill:#cccccc;fill-opacity:1;stroke:none;stroke-width:0.396874;stroke-opacity:1"
             id="circle3155"
             sodipodi:nodetypes="cccsssccsssscccssssccccccssccccsscccsccsscccscsscccccscccscsscccscssccscccssscsccscc" />
          <path
             style="fill:#cccccc;fill-opacity:1;stroke:none;stroke-width:0.396874;stroke-opacity:1"
             d="m 23.1559,44.4775 c 0.7073,0.3792 1.3449,1.2045 1.6156,2.0911 0.2707,0.8866 0.1211,1.6599 -0.3791,1.9594 -0.5001,0.2994 -1.2558,0.0721 -1.8883,-0.6218 -0.6326,-0.6938 -1.045,-1.6696 -1.045,-2.4722 0,-0.5263 0.1783,-0.922 0.4958,-1.1 0.3174,-0.1781 0.7372,-0.1051 1.201,0.1435 z"
             id="path28" />
          <path
             style="fill:#cccccc;fill-opacity:1;stroke:none;stroke-width:0.396874;stroke-opacity:1"
             d="m 41.1064,50.2883 c 0.7936,0.1194 1.5086,0.7144 1.8137,1.4911 0.3051,0.7768 0.1349,1.6221 -0.4263,2.1052 -0.5611,0.4831 -1.4051,0.5259 -2.1383,0.1084 -0.7333,-0.4175 -1.2047,-1.252 -1.2047,-2.0546 0,-0.5263 0.2054,-0.9926 0.5712,-1.2963 0.3658,-0.3037 0.864,-0.4321 1.3844,-0.3538 z"
             id="path27" />
          <path
             style="fill:#cccccc;fill-opacity:1;stroke:none;stroke-width:0.396874;stroke-opacity:1"
             d="m 60.0176,50.8696 c 0.7999,-0.0654 1.5179,0.3274 1.823,1.0337 0.3051,0.7063 0.1364,1.5793 -0.4273,2.2119 -0.5638,0.6326 -1.4136,0.8807 -2.1526,0.6339 -0.739,-0.2468 -1.2209,-0.9312 -1.2209,-1.7338 0,-0.5263 0.2084,-1.0479 0.5793,-1.4503 0.3709,-0.4025 0.8739,-0.6526 1.3985,-0.6954 z"
             id="path26" />
          <path
             style="fill:#cccccc;fill-opacity:1;stroke:none;stroke-width:0.396874;stroke-opacity:1"
             d="m 78.4107,46.5488 c 0.7421,-0.3058 1.3967,-0.1303 1.6746,0.4805 0.2779,0.6108 0.1243,1.5366 -0.3892,2.3456 -0.5135,0.8091 -1.3019,1.3055 -1.9874,1.2808 -0.6856,-0.0247 -1.1426,-0.5901 -1.1426,-1.3927 0,-0.5263 0.1968,-1.1017 0.547,-1.5997 0.3501,-0.498 0.8111,-0.9141 1.2976,-1.1145 z"
             id="path25" />
          <path
             style="fill:#cccccc;fill-opacity:1;stroke:none;stroke-width:0.396874;stroke-opacity:1"
             d="m 27.51,51.662 c 0.7033,0.3864 1.3418,1.2096 1.6188,2.0838 0.277,0.8743 0.1239,1.6544 -0.3879,1.9767 -0.5117,0.3224 -1.2466,0.0558 -1.8964,-0.6084 -0.6498,-0.6641 -1.0431,-1.6722 -1.0431,-2.4748 0,-0.5263 0.1771,-0.92 0.4923,-1.0944 0.3153,-0.1745 0.7551,-0.1363 1.2163,0.1171 z"
             id="path24" />
          <path
             style="fill:#cccccc;fill-opacity:1;stroke:none;stroke-width:0.396874;stroke-opacity:1"
             d="m 45.4871,57.3392 c 0.7978,0.0869 1.5171,0.6487 1.8224,1.4235 0.3053,0.7747 0.1365,1.6099 -0.4276,2.116 -0.5641,0.5061 -1.4139,0.5933 -2.1467,0.1734 -0.7328,-0.42 -1.2106,-1.2172 -1.2106,-2.0198 0,-0.5263 0.2066,-0.9992 0.5744,-1.3147 0.3678,-0.3155 0.8649,-0.4353 1.3881,-0.3784 z"
             id="path23" />
          <path
             style="fill:#cccccc;fill-opacity:1;stroke:none;stroke-width:0.396874;stroke-opacity:1"
             d="m 64.3591,56.6738 c 0.7869,-0.1579 1.4935,0.171 1.7915,0.8382 0.298,0.6672 0.1333,1.5618 -0.4173,2.2667 -0.5506,0.7048 -1.3917,1.0234 -2.1187,0.8621 -0.7269,-0.1613 -1.2065,-0.8212 -1.2065,-1.6238 0,-0.5263 0.2066,-1.0628 0.5744,-1.4916 0.3678,-0.4288 0.8607,-0.7481 1.3766,-0.8516 z"
             id="path22" />
          <path
             style="fill:#cccccc;fill-opacity:1;stroke:none;stroke-width:0.396874;stroke-opacity:1"
             d="m 81.7679,49.5025 c 0.6528,-0.4667 1.2317,-0.4166 1.4697,0.1309 0.2381,0.5475 0.1065,1.5083 -0.3333,2.4343 -0.4398,0.9261 -1.1509,1.57 -1.7541,1.694 -0.6032,0.124 -1.0331,-0.3732 -1.0331,-1.1758 0,-0.5263 0.1771,-1.1421 0.4923,-1.712 0.3152,-0.5698 0.7304,-1.0654 1.1585,-1.3714 z"
             id="path21" />
          <path
             style="fill:#cccccc;fill-opacity:1;stroke:none;stroke-width:0.396874;stroke-opacity:1"
             d="m 32.0758,59.4778 c 0.7123,0.3695 1.3649,1.1644 1.6455,2.0307 0.2806,0.8664 0.1255,1.6509 -0.3929,1.9878 -0.5185,0.3369 -1.2685,0.0981 -1.9266,-0.5505 -0.6581,-0.6485 -1.07,-1.6255 -1.07,-2.4281 0,-0.5263 0.1683,-0.904 0.4986,-1.1048 0.3303,-0.2008 0.7783,-0.1775 1.2454,0.0649 z"
             id="path20" />
          <path
             style="fill:#cccccc;fill-opacity:1;stroke:none;stroke-width:0.396874;stroke-opacity:1"
             d="m 50.2609,64.3497 c 0.7999,0.0649 1.5252,0.5293 1.8322,1.2791 0.307,0.7498 0.1373,1.5987 -0.43,2.151 -0.5672,0.5522 -1.42,0.6933 -2.159,0.3262 -0.739,-0.3671 -1.2208,-1.1298 -1.2208,-1.9324 0,-0.5263 0.2083,-1.0141 0.5792,-1.3562 0.3709,-0.342 0.8739,-0.5103 1.3984,-0.4677 z"
             id="path19" />
          <path
             style="fill:#cccccc;fill-opacity:1;stroke:none;stroke-width:0.396874;stroke-opacity:1"
             d="m 68.8952,61.6094 c 0.7511,-0.2825 1.4307,-0.0478 1.7113,0.5689 0.2806,0.6167 0.133,1.5574 -0.3981,2.3247 -0.5311,0.7673 -1.3299,1.2375 -2.0238,1.1914 -0.694,-0.0461 -1.1663,-0.6574 -1.1663,-1.46 0,-0.5263 0.1995,-1.0932 0.5548,-1.5761 0.3552,-0.4829 0.8296,-0.8637 1.3221,-1.0489 z"
             id="path18" />
          <path
             style="fill:#cccccc;fill-opacity:1;stroke:none;stroke-width:0.396874;stroke-opacity:1"
             d="m 84.581,51.282 c 0.5225,-0.609 0.9935,-0.6746 1.1935,-0.1661 0.1999,0.5084 0.0894,1.4907 -0.2801,2.4889 -0.3694,0.9982 -0.9149,1.825 -1.4342,2.047 -0.5193,0.222 -0.8579,-0.1566 -0.8579,-0.9592 0,-0.5263 0.1465,-1.1802 0.4071,-1.8179 0.2606,-0.6377 0.629,-1.1933 0.9716,-1.5927 z"
             id="circle4197" />
        </g>
        <g
           id="g17"
           transform="matrix(1.5,0,0,1.5,32.080728,8.4875563)">
          <g
             id="g16"
             transform="translate(15.213541)">
            <g
               id="g2">
              <g
                 id="g14"
                 transform="translate(-15.213541)">
                <g
                   id="g8">
                  <circle
                     style="fill:#216778;fill-opacity:1;stroke:none;stroke-width:0.396874;stroke-opacity:1"
                     id="path3"
                     cx="11.244791"
                     cy="1.984375"
                     r="1.984375" />
                  <g
                     id="g6"
                     transform="translate(0,-0.23477414)">
                    <g
                       id="g7">
                      <path
                         id="path6"
                         style="fill:#216778;fill-opacity:1;stroke:none;stroke-width:0.396874;stroke-opacity:1"
                         d="M 1.9843749,8.8337322 C 0.888436,8.8337322 0,9.7221682 0,10.818107 c 0,1.095939 0.888436,1.984375 1.9843749,1.984375 h 7.5127193 c -0.57039,-0.501834 -0.897539,-1.224649 -0.898135,-1.984375 5.96e-4,-0.759726 0.327745,-1.4825398 0.898135,-1.9843748 z m 9.2604161,0 a 1.9843749,1.9843749 0 0 0 -1.9843738,1.9843748 1.9843749,1.9843749 0 0 0 1.9843738,1.984375 1.9843749,1.9843749 0 0 0 0.463537,-0.06098 1.9843749,1.9843749 0 0 0 0.08165,-0.01964 1.9843749,1.9843749 0 0 0 0.412378,-0.170532 1.9843749,1.9843749 0 0 0 0.07751,-0.04754 1.9843749,1.9843749 0 0 0 0.650606,-0.650606 1.9843749,1.9843749 0 0 0 0.04754,-0.07751 1.9843749,1.9843749 0 0 0 0.170532,-0.412377 1.9843749,1.9843749 0 0 0 0.01964,-0.08165 1.9843749,1.9843749 0 0 0 0.06098,-0.463538 1.9843749,1.9843749 0 0 0 -0.0072,-0.159163 1.9843749,1.9843749 0 0 0 -0.0021,-0.02584 1.9843749,1.9843749 0 0 0 -0.02015,-0.153996 1.9843749,1.9843749 0 0 0 -0.0041,-0.02222 1.9843749,1.9843749 0 0 0 -0.03049,-0.135392 1.9843749,1.9843749 0 0 0 -0.0067,-0.02739 1.9843749,1.9843749 0 0 0 -0.186552,-0.4521688 1.9843749,1.9843749 0 0 0 -0.02481,-0.04237 1.9843749,1.9843749 0 0 0 -0.06098,-0.09509 1.9843749,1.9843749 0 0 0 -0.02067,-0.03152 1.9843749,1.9843749 0 0 0 -0.08733,-0.113688 1.9843749,1.9843749 0 0 0 -0.02739,-0.03256 1.9843749,1.9843749 0 0 0 -0.214457,-0.214457 1.9843749,1.9843749 0 0 0 -0.03256,-0.02739 1.9843749,1.9843749 0 0 0 -0.113689,-0.08733 1.9843749,1.9843749 0 0 0 -0.03152,-0.02067 1.9843749,1.9843749 0 0 0 -0.09508,-0.06098 1.9843749,1.9843749 0 0 0 -0.04237,-0.0248 1.9843749,1.9843749 0 0 0 -0.452168,-0.186552 1.9843749,1.9843749 0 0 0 -0.02739,-0.0067 1.9843749,1.9843749 0 0 0 -0.135392,-0.03049 1.9843749,1.9843749 0 0 0 -0.02222,-0.0041 1.9843749,1.9843749 0 0 0 -0.153996,-0.02015 1.9843749,1.9843749 0 0 0 -0.02584,-0.0021 1.9843749,1.9843749 0 0 0 -0.159163,-0.0072 z m 0,0.661458 a 1.3229166,1.3229166 0 0 1 1.322916,1.3229168 1.3229166,1.3229166 0 0 1 -1.322916,1.322917 1.3229166,1.3229166 0 0 1 -1.3229168,-1.322917 1.3229166,1.3229166 0 0 1 1.3229168,-1.3229168 z" />
                    </g>
                  </g>
                  <circle
                     style="fill:#216778;fill-opacity:1;stroke:none;stroke-width:0.396874;stroke-opacity:1"
                     id="path3-9"
                     cx="1.984375"
                     cy="19.182291"
                     r="1.984375" />
                </g>
                <path
                   style="fill:none;fill-opacity:1;stroke:#216778;stroke-width:1.32292;stroke-linecap:round;stroke-linejoin:round;stroke-dasharray:none;stroke-opacity:1"
                   d="M 7.9374997,1.9843749 H 1.9843749 v 5.2916665"
                   id="path14" />
                <path
                   style="fill:none;fill-opacity:1;stroke:#216778;stroke-width:1.32292;stroke-linecap:round;stroke-linejoin:round;stroke-dasharray:none;stroke-opacity:1"
                   d="M 5.2916665,19.182292 H 11.244791 V 13.890625"
                   id="path14-1" />
              </g>
              <circle
                 style="fill:#216778;fill-opacity:1;stroke:none;stroke-width:0.396874;stroke-opacity:1"
                 id="path3-4"
                 cx="1.984375"
                 cy="1.984375"
                 r="1.984375" />
              <circle
                 style="fill:#216778;fill-opacity:1;stroke:none;stroke-width:0.396874;stroke-opacity:1"
                 id="path3-610"
                 cx="1.984375"
                 cy="19.182291"
                 r="1.984375" />
              <circle
                 style="fill:#216778;fill-opacity:1;stroke:none;stroke-width:0.396874;stroke-opacity:1"
                 id="path3-0"
                 cx="10.583333"
                 cy="10.583333"
                 r="1.984375" />
              <path
                 style="fill:none;fill-opacity:1;stroke:#216778;stroke-width:1.32292;stroke-linecap:round;stroke-linejoin:round;stroke-dasharray:none;stroke-opacity:1"
                 id="path15"
                 sodipodi:type="arc"
                 sodipodi:cx="5.2916679"
                 sodipodi:cy="13.890626"
                 sodipodi:rx="5.2916665"
                 sodipodi:ry="5.2916665"
                 sodipodi:start="0"
                 sodipodi:end="1.5707963"
                 sodipodi:arc-type="arc"
                 d="M 10.583334,13.890626 A 5.2916665,5.2916665 0 0 1 5.2916679,19.182292"
                 sodipodi:open="true" />
              <path
                 style="fill:none;fill-opacity:1;stroke:#216778;stroke-width:1.32292;stroke-linecap:round;stroke-linejoin:round;stroke-dasharray:none;stroke-opacity:1"
                 id="path15-0"
                 sodipodi:type="arc"
                 sodipodi:cx="-7.2760429"
                 sodipodi:cy="5.2916679"
                 sodipodi:rx="5.2916665"
                 sodipodi:ry="5.2916665"
                 sodipodi:start="0"
                 sodipodi:end="1.5707963"
                 sodipodi:arc-type="arc"
                 d="M -1.9843764,5.2916679 A 5.2916665,5.2916665 0 0 1 -7.2760429,10.583334"
                 sodipodi:open="true"
                 transform="rotate(-90)" />
              <path
                 style="fill:none;fill-opacity:1;stroke:#216778;stroke-width:1.32292;stroke-linecap:round;stroke-linejoin:round;stroke-dasharray:none;stroke-dashoffset:3.30729;stroke-opacity:1"
                 d="M 1.9843749,5.2916665 V 15.875"
                 id="path16"
                 sodipodi:nodetypes="cc" />
            </g>
          </g>
        </g>
      </g>
    </g>
  </g>
</svg>
