<?xml version="1.0" encoding="UTF-8" standalone="no"?>
<!-- Created with Inkscape (http://www.inkscape.org/) -->

<svg
   width="128"
   height="128"
   viewBox="0 0 33.866666 33.866666"
   version="1.1"
   id="svg1"
   sodipodi:docname="search.svg"
   inkscape:version="1.3.2 (091e20ef0f, 2023-11-25, custom)"
   xmlns:inkscape="http://www.inkscape.org/namespaces/inkscape"
   xmlns:sodipodi="http://sodipodi.sourceforge.net/DTD/sodipodi-0.dtd"
   xmlns="http://www.w3.org/2000/svg"
   xmlns:svg="http://www.w3.org/2000/svg">
  <sodipodi:namedview
     id="namedview1"
     pagecolor="#ffffff"
     bordercolor="#000000"
     borderopacity="0.25"
     inkscape:showpageshadow="2"
     inkscape:pageopacity="0.0"
     inkscape:pagecheckerboard="0"
     inkscape:deskcolor="#d1d1d1"
     inkscape:document-units="px"
     inkscape:zoom="4.1478114"
     inkscape:cx="50.870201"
     inkscape:cy="99.691128"
     inkscape:window-width="1568"
     inkscape:window-height="1243"
     inkscape:window-x="0"
     inkscape:window-y="0"
     inkscape:window-maximized="0"
     inkscape:current-layer="layer1" />
  <defs
     id="defs1" />
  <g
     inkscape:label="Warstwa 1"
     inkscape:groupmode="layer"
     id="layer1">
    <g
       id="path1">
      <path
         style="color:#000000;fill:#216778;fill-opacity:0.2;stroke-linejoin:round;-inkscape-stroke:none"
         d="M 18.520832,10.054166 A 8.4666662,8.4666662 0 0 1 10.054166,18.520832 8.4666662,8.4666662 0 0 1 1.5874996,10.054166 8.4666662,8.4666662 0 0 1 10.054166,1.5874996 8.4666662,8.4666662 0 0 1 18.520832,10.054166 Z"
         id="path5" />
      <path
         style="color:#000000;fill:#216778;stroke-linejoin:round;-inkscape-stroke:none"
         d="M 10.054688,0 C 4.5207336,-1.3072333e-7 -1.3072333e-7,4.5207336 0,10.054688 c 1.3072332e-7,5.533953 4.5207337,10.052734 10.054688,10.052734 5.533953,0 10.052734,-4.518781 10.052734,-10.052734 C 20.107422,4.5207337 15.588641,1.3072332e-7 10.054688,0 Z m 0,3.1757813 c 3.818058,0 6.878906,3.0608481 6.878906,6.8789067 0,3.818058 -3.060848,6.878906 -6.878906,6.878906 -3.8180586,0 -6.8789067,-3.060848 -6.8789067,-6.878906 -1e-7,-3.8180588 3.0608479,-6.8789068 6.8789067,-6.8789067 z"
         id="path6" />
    </g>
    <path
       d="m 19.258772,16.26464 c -0.399153,0.588965 -0.853412,1.137633 -1.354956,1.639176 v 0 c -0.501543,0.501544 -1.050211,0.955803 -1.639176,1.354956 l 13.989327,13.98726 a 2.1166649,2.1166649 0 0 0 2.992065,0 2.1166649,2.1166649 0 0 0 0,-2.992065 z"
       style="fill:#216778;stroke-linecap:round;stroke-linejoin:round"
       id="path12" />
  </g>
</svg>
