<?xml version="1.0" encoding="UTF-8" standalone="no"?>
<!-- Created with Inkscape (http://www.inkscape.org/) -->

<svg
   width="128"
   height="128"
   viewBox="0 0 33.866666 33.866666"
   version="1.1"
   id="svg1"
   sodipodi:docname="search.svg"
   inkscape:version="1.4 (e7c3feb100, 2024-10-09)"
   xmlns:inkscape="http://www.inkscape.org/namespaces/inkscape"
   xmlns:sodipodi="http://sodipodi.sourceforge.net/DTD/sodipodi-0.dtd"
   xmlns="http://www.w3.org/2000/svg"
   xmlns:svg="http://www.w3.org/2000/svg">
  <sodipodi:namedview
     id="namedview1"
     pagecolor="#ffffff"
     bordercolor="#000000"
     borderopacity="0.25"
     inkscape:showpageshadow="2"
     inkscape:pageopacity="0.0"
     inkscape:pagecheckerboard="0"
     inkscape:deskcolor="#d1d1d1"
     inkscape:document-units="px"
     inkscape:zoom="4.1478114"
     inkscape:cx="46.651109"
     inkscape:cy="46.651109"
     inkscape:window-width="2560"
     inkscape:window-height="1368"
     inkscape:window-x="0"
     inkscape:window-y="0"
     inkscape:window-maximized="1"
     inkscape:current-layer="path1" />
  <defs
     id="defs1" />
  <g
     inkscape:label="Warstwa 1"
     inkscape:groupmode="layer"
     id="layer1">
    <g
       id="g1"
       transform="translate(0.2651835,0.26457547)">
      <g
         id="g2"
         style="stroke-width:1.05833331;stroke-dasharray:none;paint-order:markers stroke fill">
        <g
           id="g3"
           transform="translate(-0.25945881,-0.25888186)">
          <g
             id="path1"
             style="stroke:none;stroke-width:1.05829;stroke-dasharray:none;stroke-opacity:1;paint-order:normal"
             transform="matrix(1.0000399,0,0,1.0000399,-0.00406815,-0.00403652)">
            <path
               style="color:#000000;fill:#cddbde;fill-opacity:1;stroke:#cddbde;stroke-width:1.05829;stroke-linejoin:round;stroke-dasharray:none;stroke-opacity:1;paint-order:normal"
               d="M 18.520832,10.054166 A 8.4666662,8.4666662 0 0 1 10.054166,18.520832 8.4666662,8.4666662 0 0 1 1.5874996,10.054166 8.4666662,8.4666662 0 0 1 10.054166,1.5874996 8.4666662,8.4666662 0 0 1 18.520832,10.054166 Z"
               id="path5" />
            <path
               style="color:#000000;fill:#216778;stroke:none;stroke-width:1.05829;stroke-linejoin:round;stroke-dasharray:none;stroke-opacity:1;paint-order:normal"
               d="M 10.054688,0 C 4.5207336,-1.3072333e-7 -1.3072333e-7,4.5207336 0,10.054688 c 1.3072332e-7,5.533953 4.5207337,10.052734 10.054688,10.052734 5.533953,0 10.052734,-4.518781 10.052734,-10.052734 C 20.107422,4.5207337 15.588641,1.3072332e-7 10.054688,0 Z m 0,3.1757813 c 3.818058,0 6.878906,3.0608481 6.878906,6.8789067 0,3.818058 -3.060848,6.878906 -6.878906,6.878906 -3.8180586,0 -6.8789067,-3.060848 -6.8789067,-6.878906 -1e-7,-3.8180588 3.0608479,-6.8789068 6.8789067,-6.8789067 z"
               id="path6" />
          </g>
          <path
             d="m 19.255473,16.261254 c -0.399169,0.588987 -0.853445,1.137678 -1.35501,1.63924 v 0 c -0.501563,0.501565 -1.050253,0.955842 -1.639241,1.355011 l 13.989885,13.987818 a 2.1167494,2.1167495 0 0 0 2.992185,0 2.1167494,2.1167495 0 0 0 0,-2.992184 z"
             style="fill:#216778;stroke:none;stroke-width:1.05833;stroke-linecap:round;stroke-linejoin:round;stroke-dasharray:none;stroke-opacity:1;paint-order:normal"
             id="path12" />
        </g>
      </g>
    </g>
  </g>
</svg>
