<?xml version="1.0" encoding="UTF-8" standalone="no"?>
<!-- Created with Inkscape (http://www.inkscape.org/) -->

<svg
   width="400"
   height="400"
   viewBox="0 0 105.83333 105.83333"
   version="1.1"
   id="svg1"
   inkscape:version="1.3.2 (091e20ef0f, 2023-11-25, custom)"
   sodipodi:docname="logo.svg"
   xmlns:inkscape="http://www.inkscape.org/namespaces/inkscape"
   xmlns:sodipodi="http://sodipodi.sourceforge.net/DTD/sodipodi-0.dtd"
   xmlns="http://www.w3.org/2000/svg"
   xmlns:svg="http://www.w3.org/2000/svg">
  <sodipodi:namedview
     id="namedview1"
     pagecolor="#ffffff"
     bordercolor="#000000"
     borderopacity="0.25"
     inkscape:showpageshadow="2"
     inkscape:pageopacity="0.0"
     inkscape:pagecheckerboard="0"
     inkscape:deskcolor="#d1d1d1"
     inkscape:document-units="px"
     inkscape:zoom="4.1478114"
     inkscape:cx="136.4575"
     inkscape:cy="124.16186"
     inkscape:window-width="2560"
     inkscape:window-height="1368"
     inkscape:window-x="0"
     inkscape:window-y="0"
     inkscape:window-maximized="1"
     inkscape:current-layer="layer1" />
  <defs
     id="defs1" />
  <g
     inkscape:label="Warstwa 1"
     inkscape:groupmode="layer"
     id="layer1">
    <g
       id="g3"
       sodipodi:insensitive="true">
      <path
         id="path2"
         style="fill:#2c89a0;stroke:none;stroke-width:0.264583;stroke-opacity:1"
         d="m 13.486515,36.997742 a 39.6875,39.6875 0 0 0 19.586402,30.445687 39.6875,39.6875 0 0 0 39.6875,0 A 39.6875,39.6875 0 0 0 92.346818,36.997742 41.010418,14.552083 0 0 1 52.916667,47.625 41.010418,14.552083 0 0 1 13.486515,36.997742 Z" />
      <path
         id="path2-5"
         style="fill:#216778;fill-opacity:1;stroke:none;stroke-width:0.264583;stroke-opacity:1"
         d="m 39.6875,71.983335 v 3.79925 a 39.6875,39.6875 0 0 0 26.458333,-5.2e-4 v -3.79873 a 43.656251,43.656251 0 0 1 -26.458333,0 z" />
      <ellipse
         style="fill:#cccccc;stroke:none;stroke-width:0.264583;stroke-opacity:1"
         id="path1"
         cx="52.916668"
         cy="33.072918"
         rx="39.6875"
         ry="13.229167" />
    </g>
    <circle
       style="fill:#216778;fill-opacity:1;stroke:none;stroke-width:0.396874;stroke-opacity:1"
       id="path3-4"
       cx="1.984375"
       cy="1.984375"
       r="1.984375" />
    <circle
       style="fill:#216778;fill-opacity:1;stroke:none;stroke-width:0.396874;stroke-opacity:1"
       id="path3-610"
       cx="1.984375"
       cy="19.182291"
       r="1.984375" />
    <circle
       style="fill:#216778;fill-opacity:1;stroke:none;stroke-width:0.396874;stroke-opacity:1"
       id="path3-0"
       cx="11.244791"
       cy="10.583333"
       r="1.984375" />
    <circle
       style="fill:#cccccc;fill-opacity:1;stroke:none;stroke-width:0.396874;stroke-opacity:1"
       id="path3-6"
       cx="86.520302"
       cy="91.68058"
       r="1.984375" />
    <circle
       style="fill:#cccccc;fill-opacity:1;stroke:none;stroke-width:0.396874;stroke-opacity:1"
       id="path3-61"
       cx="73.871246"
       cy="91.717285"
       r="1.984375" />
    <circle
       style="fill:#cccccc;fill-opacity:1;stroke:none;stroke-width:0.396874;stroke-opacity:1"
       id="path3-2"
       cx="74.653915"
       cy="103.4699"
       r="1.984375" />
    <path
       id="path8"
       style="fill:#216778;fill-opacity:1;stroke:none;stroke-width:0.431034;stroke-opacity:1"
       d="M 2.8621591,19.897426 A 9.260416,9.260416 0 0 0 12.122576,10.637009 9.260416,9.260416 0 0 0 2.8621591,1.3765934 V 2.69951 a 7.9374995,7.9374995 0 0 1 7.9374999,7.937499 7.9374995,7.9374995 0 0 1 -7.9374999,7.9375 z" />
    <path
       id="path12"
       style="fill:#216778;fill-opacity:1;stroke:none;stroke-width:0.431034;stroke-opacity:1"
       d="M 27.305826 11.117667 A 9.260416 9.260416 0 0 0 36.566242 20.378084 L 36.566242 19.055167 A 7.9374995 7.9374995 0 0 1 28.628743 11.117667 A 7.9374995 7.9374995 0 0 1 36.566242 3.1801675 L 36.566242 1.8572509 A 9.260416 9.260416 0 0 0 27.305826 11.117667 z " />
    <path
       id="path8-3"
       style="fill:#216778;fill-opacity:1;stroke:none;stroke-width:0.431034;stroke-opacity:1"
       d="m 30.217561,-1.992074 a 9.260416,9.260416 0 0 0 9.260417,-9.260416 9.260416,9.260416 0 0 0 -9.260417,-9.260417 v 1.322917 a 7.9374995,7.9374995 0 0 1 7.9375,7.9375 7.9374995,7.9374995 0 0 1 -7.9375,7.9375 z" />
    <path
       id="path13"
       style="fill:#216778;fill-opacity:1;stroke:none;stroke-width:0.431034;stroke-opacity:1"
       d="M 49.730813 8.2222369 A 9.260416 9.260416 0 0 0 58.991229 17.482653 L 58.991229 16.159737 A 7.9374995 7.9374995 0 0 1 51.05373 8.2222369 A 7.9374995 7.9374995 0 0 1 58.991229 0.28473713 L 58.991229 -1.0381795 A 9.260416 9.260416 0 0 0 49.730813 8.2222369 z " />
    <g
       id="g14"
       transform="translate(36.694924,22.041722)">
      <g
         id="g8">
        <circle
           style="fill:#216778;fill-opacity:1;stroke:none;stroke-width:0.396874;stroke-opacity:1"
           id="path3"
           cx="11.244791"
           cy="1.984375"
           r="1.984375" />
        <g
           id="g6"
           transform="translate(0,-0.23477414)">
          <g
             id="g7">
            <path
               id="path6"
               style="fill:#216778;fill-opacity:1;stroke:none;stroke-width:0.396874;stroke-opacity:1"
               d="M 1.9843749,8.8337322 C 0.888436,8.8337322 0,9.7221682 0,10.818107 c 0,1.095939 0.888436,1.984375 1.9843749,1.984375 h 7.5127193 c -0.57039,-0.501834 -0.897539,-1.224649 -0.898135,-1.984375 5.96e-4,-0.759726 0.327745,-1.4825398 0.898135,-1.9843748 z m 9.2604161,0 a 1.9843749,1.9843749 0 0 0 -1.9843738,1.9843748 1.9843749,1.9843749 0 0 0 1.9843738,1.984375 1.9843749,1.9843749 0 0 0 0.463537,-0.06098 1.9843749,1.9843749 0 0 0 0.08165,-0.01964 1.9843749,1.9843749 0 0 0 0.412378,-0.170532 1.9843749,1.9843749 0 0 0 0.07751,-0.04754 1.9843749,1.9843749 0 0 0 0.650606,-0.650606 1.9843749,1.9843749 0 0 0 0.04754,-0.07751 1.9843749,1.9843749 0 0 0 0.170532,-0.412377 1.9843749,1.9843749 0 0 0 0.01964,-0.08165 1.9843749,1.9843749 0 0 0 0.06098,-0.463538 1.9843749,1.9843749 0 0 0 -0.0072,-0.159163 1.9843749,1.9843749 0 0 0 -0.0021,-0.02584 1.9843749,1.9843749 0 0 0 -0.02015,-0.153996 1.9843749,1.9843749 0 0 0 -0.0041,-0.02222 1.9843749,1.9843749 0 0 0 -0.03049,-0.135392 1.9843749,1.9843749 0 0 0 -0.0067,-0.02739 1.9843749,1.9843749 0 0 0 -0.186552,-0.4521688 1.9843749,1.9843749 0 0 0 -0.02481,-0.04237 1.9843749,1.9843749 0 0 0 -0.06098,-0.09509 1.9843749,1.9843749 0 0 0 -0.02067,-0.03152 1.9843749,1.9843749 0 0 0 -0.08733,-0.113688 1.9843749,1.9843749 0 0 0 -0.02739,-0.03256 1.9843749,1.9843749 0 0 0 -0.214457,-0.214457 1.9843749,1.9843749 0 0 0 -0.03256,-0.02739 1.9843749,1.9843749 0 0 0 -0.113689,-0.08733 1.9843749,1.9843749 0 0 0 -0.03152,-0.02067 1.9843749,1.9843749 0 0 0 -0.09508,-0.06098 1.9843749,1.9843749 0 0 0 -0.04237,-0.0248 1.9843749,1.9843749 0 0 0 -0.452168,-0.186552 1.9843749,1.9843749 0 0 0 -0.02739,-0.0067 1.9843749,1.9843749 0 0 0 -0.135392,-0.03049 1.9843749,1.9843749 0 0 0 -0.02222,-0.0041 1.9843749,1.9843749 0 0 0 -0.153996,-0.02015 1.9843749,1.9843749 0 0 0 -0.02584,-0.0021 1.9843749,1.9843749 0 0 0 -0.159163,-0.0072 z m 0,0.661458 a 1.3229166,1.3229166 0 0 1 1.322916,1.3229168 1.3229166,1.3229166 0 0 1 -1.322916,1.322917 1.3229166,1.3229166 0 0 1 -1.3229168,-1.322917 1.3229166,1.3229166 0 0 1 1.3229168,-1.3229168 z" />
          </g>
        </g>
        <circle
           style="fill:#216778;fill-opacity:1;stroke:none;stroke-width:0.396874;stroke-opacity:1"
           id="path3-9"
           cx="1.984375"
           cy="19.182291"
           r="1.984375" />
      </g>
      <path
         style="fill:none;fill-opacity:1;stroke:#216778;stroke-width:1.32292;stroke-linecap:round;stroke-linejoin:round;stroke-dasharray:none;stroke-opacity:1"
         d="M 7.9374997,1.9843749 H 1.9843749 v 5.2916665"
         id="path14" />
      <path
         style="fill:none;fill-opacity:1;stroke:#216778;stroke-width:1.32292;stroke-linecap:round;stroke-linejoin:round;stroke-dasharray:none;stroke-opacity:1"
         d="M 5.2916665,19.182292 H 11.244791 V 13.890625"
         id="path14-1" />
    </g>
  </g>
</svg>
